<svg width="100px" height="100px" viewBox="576 -11 227 208" version="1.1" xmlns="http://www.w3.org/2000/svg" xmlns:xlink="http://www.w3.org/1999/xlink">
    <!-- Generator: Sketch 42 (36781) - http://www.bohemiancoding.com/sketch -->
    <desc>Created with Sketch.</desc>
    <defs></defs>
    <path d="M584.409404,189.7478 C588.745751,193.493304 783.13227,193.117542 789.321008,189.7478 C795.509746,186.378059 796.596885,182.466365 798.203216,174.949478 C799.809548,167.432592 785.635604,149.372531 776.931333,137.054717 C768.227062,124.736902 716.124497,119.626593 713.407204,116.002242 C710.689912,112.37789 711.678119,108.577612 714.278701,104.427293 C716.879283,100.276973 744.194972,82.2639666 738.919963,45.5061398 C733.644953,8.74831299 717.127462,1.86686485 707.828398,-2.13005208 C698.529335,-6.12696901 691.324186,-7 687.253099,-7 C683.182011,-7 670.652174,-3.345048 663.613751,1.86686485 C656.575329,7.07877769 640.790665,14.2504029 638.374103,49.4370807 C635.957541,84.6237586 665.874919,108.47306 667.177989,111.56037 C668.481059,114.64768 669.23069,115.215929 667.402,118.21167 C665.57331,121.20741 608.445004,127.859215 601.662306,134.961897 C594.879609,142.064579 583.025397,169.595488 580.984207,176.077207 C578.943016,182.558927 580.073056,186.002296 584.409404,189.7478 Z" id="Line" stroke="#350C90" stroke-width="10" stroke-linecap="square" fill="none"></path>
</svg>