
<svg width="227px" height="208px" viewBox="1036 -1038 227 208" version="1.1" xmlns="http://www.w3.org/2000/svg" xmlns:xlink="http://www.w3.org/1999/xlink">
    <!-- Generator: Sketch 42 (36781) - http://www.bohemiancoding.com/sketch -->
    <desc>Created with Sketch.</desc>
    <defs></defs>
    <g id="Group-10" stroke="none" stroke-width="1" fill="none" fill-rule="evenodd" transform="translate(1040.000000, -1034.000000)">
        <g id="Group-7" stroke="#FEFEFE" stroke-width="8" stroke-linecap="square">
            <path d="M4.4027629,196.33552 C8.7325795,200.073176 202.826348,199.6982 209.005766,196.33552 C215.185183,192.97284 216.270684,189.069343 217.874597,181.568208 C219.478509,174.067073 205.325911,156.044856 196.634749,143.752853 C187.943588,131.460851 135.91949,126.36125 133.20629,122.744494 C130.49309,119.127737 131.479809,115.335423 134.076474,111.1938 C136.673139,107.052177 163.947691,89.0769162 158.680625,52.3961145 C153.41356,15.7153128 136.920944,8.84828456 127.635886,4.85974307 C118.350827,0.871201577 111.156529,0 107.091573,0 C103.026616,4.54426184e-16 90.5156493,3.64729314 83.4878271,8.84828456 C76.4600049,14.049276 60.6991131,21.2058732 58.2861905,56.3188183 C55.8732678,91.4317634 85.7455888,115.23109 87.0466965,118.31193 C88.3478042,121.392771 89.0963063,121.959829 87.2703706,124.949292 C85.4444349,127.938755 28.4021647,134.576621 21.6296823,141.664419 C14.8571999,148.752218 3.02084111,176.225436 0.982724438,182.693574 C-1.05539223,189.161711 0.0729463021,192.597865 4.4027629,196.33552 Z" id="Line"></path>
        </g>
        <text id="about" font-family="Baskerville-SemiBold, Baskerville" font-size="36" font-weight="500" fill="#350C90">
            <tspan x="57" y="176">about</tspan>
        </text>
    </g>
</svg>