<svg width="60px" height="60px" viewBox="354 8 231 208" version="1.1" xmlns="http://www.w3.org/2000/svg" xmlns:xlink="http://www.w3.org/1999/xlink">
    <!-- Generator: Sketch 42 (36781) - http://www.bohemiancoding.com/sketch -->
    <desc>Created with Sketch.</desc>
    <defs></defs>
    <path d="M378.36471,57.2249702 C372.899658,69.1018684 364.38018,93.8960763 422.164729,145.915098 C479.949277,197.934121 524.467391,192.749447 534.017132,189.34911 C543.566872,185.948772 566.420795,168.803142 564.312139,162.055603 C562.203483,155.308064 526.662372,124.640153 519.45032,124.640153 C512.238267,124.640153 498.317291,148.867912 489.366719,150.387162 C480.416146,151.906412 422.164729,104.039826 424.309229,95.3214785 C426.45373,86.6031307 452.941126,75.2828796 454.750148,69.9212997 C456.55917,64.5597198 420.407575,34.4276951 411.522697,32.50313 C402.63782,30.5785649 383.829761,45.3480719 378.36471,57.2249702 Z" id="Line" stroke="#350C90" stroke-width="10" stroke-linecap="square" fill="none" transform="translate(469.448765, 111.832770) rotate(13.000000) translate(-469.448765, -111.832770) "></path>
</svg>