
<svg width="231px" height="208px" viewBox="1298 -409 231 208" version="1.1" xmlns="http://www.w3.org/2000/svg" xmlns:xlink="http://www.w3.org/1999/xlink">
    <!-- Generator: Sketch 42 (36781) - http://www.bohemiancoding.com/sketch -->
    <desc>Created with Sketch.</desc>
    <defs></defs>
    <g id="Group-14" stroke="none" stroke-width="1" fill="none" fill-rule="evenodd" transform="translate(1303.000000, -404.000000)">
        <path d="M19.3647098,44.2249702 C13.8996581,56.1018684 5.3801802,80.8960763 63.1647288,132.915098 C120.949277,184.934121 165.467391,179.749447 175.017132,176.34911 C184.566872,172.948772 207.420795,155.803142 205.312139,149.055603 C203.203483,142.308064 167.662372,111.640153 160.45032,111.640153 C153.238267,111.640153 139.317291,135.867912 130.366719,137.387162 C121.416146,138.906412 63.1647288,91.0398264 65.3092293,82.3214785 C67.4537299,73.6031307 93.9411262,62.2828796 95.7501481,56.9212997 C97.55917,51.5597198 61.4075746,21.4276951 52.5226975,19.50313 C43.6378204,17.5785649 24.8297614,32.3480719 19.3647098,44.2249702 Z" id="Line" stroke="#FEFEFE" stroke-width="8" stroke-linecap="square" transform="translate(110.448765, 98.832770) rotate(13.000000) translate(-110.448765, -98.832770) "></path>
        <text id="contact" font-family="Baskerville-SemiBold, Baskerville" font-size="36" font-weight="500" fill="#350C90">
            <tspan x="98" y="94">contact</tspan>
        </text>
    </g>
</svg>