
<svg width="123px" height="118px" viewBox="1026 238 123 118" version="1.1" xmlns="http://www.w3.org/2000/svg" xmlns:xlink="http://www.w3.org/1999/xlink">
    <!-- Generator: Sketch 42 (36781) - http://www.bohemiancoding.com/sketch -->
    <desc>Created with Sketch.</desc>
    <defs>
        <rect id="path-1" x="0" y="0" width="123" height="117" rx="8"></rect>
        <mask id="mask-2" maskContentUnits="userSpaceOnUse" maskUnits="objectBoundingBox" x="0" y="0" width="123" height="117" fill="white">
            <use xlink:href="#path-1"></use>
        </mask>
    </defs>
    <g id="Group-5" stroke="none" stroke-width="1" fill="none" fill-rule="evenodd" transform="translate(1026.000000, 238.000000)">
        <use id="Rectangle-3" stroke="#350C90" mask="url(#mask-2)" stroke-width="16" xlink:href="#path-1"></use>
        <path d="M47.1853448,110.5 L47.1853448,109.256086 L47.1853448,97.4164865 L34.111738,96.581042 C34.111738,96.581042 31.3222954,96.4099698 28.2010876,93.2957335 C25.0798798,90.1814972 23.1754763,85.6692074 23.1754763,85.6692074 C23.1754763,85.6692074 23.716604,86.1880803 21.5455294,82.9964098 C19.3744547,79.8047394 16.4746468,79.858583 16.6587927,78.7180881 C16.8429386,77.5775932 19.6900104,77.6150467 22.3243032,78.1731289 C24.958596,78.7312111 25.2331285,79.111143 27.2751294,80.9671883 C29.3171303,82.8232336 28.5283083,83.5558417 30.5714075,85.6692074 C32.6145068,87.7825732 35.1868898,89.1510509 35.1868898,89.1510509 L40.6712176,89.6414488 C40.6712176,89.6414488 44.3161155,89.3525252 45.4464039,88.9827931 C46.5766924,88.613061 47.4019993,87.4397222 47.4019993,87.4397222 C47.4019993,87.4397222 47.8855899,84.9806515 48.4651919,83.84652 C49.044794,82.7123885 50.8375422,80.717252 50.8375422,80.717252 C50.8375422,80.717252 37.8955686,79.3316988 31.4558424,74.2515791 C25.0161162,69.1714593 23.1754763,61.6446696 22.7310116,58.5447966 C22.286547,55.4449236 22.0719487,50.2121123 23.7249183,44.4235579 C25.3778879,38.6350034 29.2279533,35.7930771 29.2279533,35.7930771 C29.2279533,35.7930771 27.5826547,31.6231786 27.7947739,27.6980807 C28.0068931,23.7729828 30.0922953,19.7991129 30.0922953,19.7991129 C30.0922953,19.7991129 32.9967931,19.7194681 37.692269,21.5163224 C42.3877449,23.3131767 47.0223124,26.2778544 47.0223124,26.2778544 C47.0223124,26.2778544 53.8624637,24.8351705 62.2267634,24.7756227 C70.5910632,24.716075 78.9627799,26.0504613 78.9627799,26.0504613 C78.9627799,26.0504613 84.7016099,22.5884711 87.9682187,21.5163224 C91.2348276,20.4441737 95.1434697,20.7397229 95.1434697,20.7397229 C95.1434697,20.7397229 96.688089,25.2381402 96.8371643,27.6980807 C96.9862396,30.1580213 96.2073552,35.7930771 96.2073552,35.7930771 C96.2073552,35.7930771 100.05138,40.8649748 101.060142,44.4235579 C102.068904,47.9821409 102.146545,53.2420555 102.146545,56.7446017 C102.146545,60.2471479 100.26855,64.7690278 97.8930819,68.862756 C95.5176137,72.9564842 89.0043898,76.1827864 87.4852958,76.9342289 C85.9662018,77.6856714 84.8793931,78.2513981 81.4681592,79.1055711 C78.0569253,79.959744 74.5028446,80.1850346 74.5028446,80.1850346 C74.5028446,80.1850346 76.056411,81.7729452 76.955913,83.84652 C77.8554149,85.9200949 78.0423164,88.3443936 78.0423164,88.3443936 L78.337128,108.953522" id="Line" stroke="#350C90" stroke-width="4" stroke-linecap="square"></path>
    </g>
</svg>