<svg width="60px" height="60px" viewBox="905 -41 199 169" version="1.1" xmlns="http://www.w3.org/2000/svg" xmlns:xlink="http://www.w3.org/1999/xlink">
    <!-- Generator: Sketch 42 (36781) - http://www.bohemiancoding.com/sketch -->
    <desc>Created with Sketch.</desc>
    <defs></defs>
    <path d="M981.971276,121.28258 C980.190862,123.297313 934.858428,123.832076 932.963128,121.28258 C931.067829,118.733083 934.990921,50.1587045 933.229669,48.7569336 C931.468418,47.3551627 917.711263,50.4365662 909.937236,47.0040616 C902.163208,43.5715569 1002.15548,-36.8316764 1005.96364,-35.9934923 C1009.77179,-35.1553083 1099.50654,38.6428427 1099.50654,44.354355 C1099.50654,50.0658672 1081.47109,46.5812941 1078.4515,47.3551627 C1075.43192,48.1290312 1082.98281,116.957981 1080.33986,120.203839 C1077.69691,123.449698 1034.703,122.089563 1032.67409,120.311668 C1030.64519,118.533773 1047.6185,58.2640493 1008.60476,58.2640493 C969.591023,58.2640493 983.751691,119.267847 981.971276,121.28258 Z" id="Line" stroke="#350C90" stroke-width="12" stroke-linecap="square" fill="none"></path>
</svg>