<svg width="100px" height="100px" viewBox="1 8 131 168" version="1.1" xmlns="http://www.w3.org/2000/svg" xmlns:xlink="http://www.w3.org/1999/xlink">
    <!-- Generator: Sketch 42 (36781) - http://www.bohemiancoding.com/sketch -->
    <desc>Created with Sketch.</desc>
    <defs></defs>
    <g id="Group" stroke="none" stroke-width="1" fill="none" fill-rule="evenodd" transform="translate(5.000000, 13.000000)" stroke-linecap="square">
        <path d="M121.526283,156.190486 C123.243023,153.324322 122.493717,24.7996739 122.493717,23.2142997 C122.493717,21.9486232 106.399555,22.2612864 109.196247,22.2256891 C110.280896,22.2118833 107.604173,22.1791514 107.626356,22.0957737 C108.651356,18.243124 106.622472,36.196153 107.626356,36.0951147 C108.63024,35.9940764 13.0161159,35.5933058 14.0411159,35.3195049 C15.0661159,35.0457041 14.0411159,22.1522569 14.0411159,22.0957737 C14.0411159,21.7807662 2.20325507,21.5311892 1.48055556,21.9029784 C0.455555556,22.6785881 -0.987319384,152.802423 1.48055556,156.190486 C3.94843049,159.578549 119.809544,159.05665 121.526283,156.190486 Z" id="Line" stroke="#350C90" stroke-width="8"></path>
        <path d="M15.375,34.2612671 C15.375,34.2612671 16.4,17.4413995 16.4,15.5999206 C16.4,14.9802297 34.9857033,14.9802297 36.0510523,15.5999206 C37.1164013,16.2196115 30.6807684,0.0287181335 61.8881135,4.28894777e-05 C93.0954587,-0.0286323545 86.9493275,14.331119 86.9493275,14.331119 C86.9493275,14.331119 101.212405,14.1761498 104.64543,14.331119 C108.078456,14.4860882 107.404177,33.4856573 107.404177,33.4856573" id="Line" stroke="#350C90" stroke-width="8"></path>
        <path d="M36.9,15.5121951 C36.9,15.5121951 40.1764262,24.0439024 63.6842841,24.0439024 C87.1921421,24.0439024 87.125,12.4097561 87.125,12.4097561" id="Line" stroke="#350C90" stroke-width="8"></path>
    </g>
</svg>