<svg width="60px" height="60px" viewBox="827 -478 124 147" version="1.1" xmlns="http://www.w3.org/2000/svg" xmlns:xlink="http://www.w3.org/1999/xlink">
    <!-- Generator: Sketch 42 (36781) - http://www.bohemiancoding.com/sketch -->
    <desc>Created with Sketch.</desc>
    <defs></defs>
    <g id="Group-16" stroke="none" stroke-width="1" fill="none" fill-rule="evenodd" transform="translate(831.000000, -474.000000)" stroke-linecap="square">
        <g id="Group-10" transform="translate(0.000000, 21.000000)" stroke="#350C90" stroke-width="8">
            <path d="M114.610153,115.547154 C116.229192,113.099159 115.52253,3.32610226 115.52253,1.97203222 C115.52253,0.891016386 100.344295,1.15806242 102.981827,1.1276587 C104.004748,1.11586715 101.480358,1.08791077 101.501279,1.01669783 C102.467945,-2.27385492 100.554526,13.0598488 101.501279,12.9735519 C102.448031,12.8872549 12.2753613,12.5449563 13.242028,12.3111026 C14.2086946,12.077249 13.242028,1.06494016 13.242028,1.01669783 C13.242028,0.747649491 2.07786657,0.534485541 1.3962963,0.852031109 C0.42962963,1.51448034 -0.931130476,112.653405 1.3962963,115.547154 C3.72372307,118.440902 112.991114,117.995148 114.610153,115.547154 Z" id="Line"></path>
        </g>
        <path d="M14.5,34.2612671 C14.5,34.2612671 15.4666667,17.4413995 15.4666667,15.5999206 C15.4666667,14.9802297 32.994647,14.9802297 33.9993664,15.5999206 C35.0040858,16.2196115 28.9347084,0.0287181335 58.3660258,4.28894777e-05 C87.7973431,-0.0286323545 82.0009918,14.331119 82.0009918,14.331119 C82.0009918,14.331119 95.4523498,14.1761498 98.6899995,14.331119 C101.927649,14.4860882 101.291744,33.4856573 101.291744,33.4856573" id="Line" stroke="#350C90" stroke-width="8"></path>
        <path d="M34.8,15.5121951 C34.8,15.5121951 37.8899629,24.0439024 60.0599753,24.0439024 C82.2299876,24.0439024 82.1666667,12.4097561 82.1666667,12.4097561" id="Line" stroke="#350C90" stroke-width="8"></path>
    </g>
</svg>