<svg width="150px" height="174px" viewBox="872 -486 150 174" version="1.1" xmlns="http://www.w3.org/2000/svg" xmlns:xlink="http://www.w3.org/1999/xlink">
    <!-- Generator: Sketch 42 (36781) - http://www.bohemiancoding.com/sketch -->
    <desc>Created with Sketch.</desc>
    <defs></defs>
    <g id="Group" stroke="none" stroke-width="1" fill="none" fill-rule="evenodd" transform="translate(876.000000, -481.000000)" stroke-linecap="square">
        <path d="M140.298636,162.084467 C142.280563,159.110145 141.415511,25.7355107 141.415511,24.090311 C141.415511,22.7768731 122.835258,23.1013349 126.06396,23.0643943 C127.316157,23.0500676 124.225956,23.0161005 124.251565,22.9295765 C125.434899,18.9315438 123.09261,37.5620456 124.251565,37.4571945 C125.410521,37.3523434 15.0267354,36.9364494 16.2100687,36.6523165 C17.3934021,36.3681835 16.2100687,22.9881911 16.2100687,22.9295765 C16.2100687,22.6026819 2.54359529,22.3436869 1.70925926,22.7295059 C0.525925926,23.5343839 -1.13983213,158.568552 1.70925926,162.084467 C4.55835065,165.600381 138.316709,165.058788 140.298636,162.084467 Z" id="Line" stroke="#350C90" stroke-width="8"></path>
        <path d="M17.75,35.5541451 C17.75,35.5541451 18.9333333,18.0995655 18.9333333,16.1885969 C18.9333333,15.5455214 40.3899989,15.5455214 41.619914,16.1885969 C42.8498292,16.8316723 35.4200741,0.0298018367 71.448066,4.45079486e-05 C107.476058,-0.0297128208 100.380524,14.871916 100.380524,14.871916 C100.380524,14.871916 116.846842,14.7110989 120.810172,14.871916 C124.773502,15.032733 123.995066,34.749267 123.995066,34.749267" id="Line" stroke="#350C90" stroke-width="8"></path>
        <path d="M42.6,16.097561 C42.6,16.097561 46.3825408,24.9512195 73.5216939,24.9512195 C100.660847,24.9512195 100.583333,12.8780488 100.583333,12.8780488" id="Line" stroke="#350C90" stroke-width="8"></path>
    </g>
</svg>